<?xml version="1.0" encoding="UTF-8"?>
<svg id="Layer_1" xmlns="http://www.w3.org/2000/svg" version="1.1" xmlns:xlink="http://www.w3.org/1999/xlink" viewBox="0 0 64 64">
  <!-- Generator: Adobe Illustrator 30.0.0, SVG Export Plug-In . SVG Version: 2.1.1 Build 123)  -->
  <defs>
    <style>
      .st0 {
        fill: #e96c33;
      }

      .st1 {
        fill: none;
      }

      .st2 {
        fill: #f8c01b;
      }

      .st3 {
        font-family: Montserrat-Bold, Montserrat;
        font-size: 35.73px;
        font-weight: 700;
      }

      .st4 {
        fill: #020101;
      }

      .st5 {
        clip-path: url(#clippath);
      }
    </style>
    <clipPath id="clippath">
      <path class="st1" d="M60.92,8.16v47.68c0,1.86-1.12,3.46-2.71,4.16-.56.27-1.2.41-1.86.41H7.65c-2.52,0-4.57-2.05-4.57-4.57V8.16c0-2.52,2.05-4.57,4.57-4.57h48.7c2.52,0,4.57,2.05,4.57,4.57Z"/>
    </clipPath>
  </defs>
  <path class="st2" d="M60.92,8.16v47.68c0,1.86-1.12,3.46-2.71,4.16-.56.27-1.2.41-1.86.41H7.65c-2.52,0-4.57-2.05-4.57-4.57V8.16c0-2.52,2.05-4.57,4.57-4.57h48.7c2.52,0,4.57,2.05,4.57,4.57Z"/>
  <g class="st5">
    <path class="st4" d="M60.45,22.03c.29-.7.45-1.41.46-2.11v-.81c-.19-2.53-1.86-4.86-4.2-6.02.08-3.08-1.64-5.67-4.51-6.75-1.84-.7-3.75-.68-5.67-.43-.89-1.01-1.9-1.78-2.94-2.32-2.03-1.03-4.22-1.1-6.11,0-.93.56-1.8,1.37-2.53,2.53-2.38,3.68-1.8,7.97-.87,12.04-.95.72-2.15,1.9-2.38,3.12-.04.23.02.85-.12.95-6.42-.06-12.69,2.21-18.03,5.65-4.06,2.63-7.62,6.02-10.47,9.91v6.95c.04-.1.08-.21.14-.31.75-1.55,3.85-6.97,5.21-7.7l.33-.31c.1-.12.21-.21.31-.33.02-.04.06-.06.08-.1l.46-.45c.66-.66,1.26-1.18,1.97-1.8,3.33-2.79,7.8-4.82,12-5.98.46-.14,1.08-.33,1.55-.29.21-.06.43-.14.62-.17,2.5-.68,5.15-.85,7.72-.64h.17c1.14-.02,3.15.52,4.24.93.27.1.64.17.79.43.02,0,.06-.02.08,0,.08.02.1.08.1.08.15.06.31.12.45.19,3.72,1.51,6.11,5.17,8.01,8.55.83,1.49,2.01,3.7,2.36,5.34.06.33.1.68.12,1.03.02.17.04.35.06.52,0,.15.04.31.06.46.1.41.25.7.46.95.33.39.75.66,1.22,1.08.04.04.06.06.1.1.08.06.14.12.17.17,3.27,2.96,5.36,5.65,6.19,10.2.21,1.2.29,2.3.17,3.31,1.59-.7,2.71-2.3,2.71-4.16v-6.11c-.68-1.22-1.49-2.34-2.38-3.33-1.7-1.84-3.79-2.75-4.66-5.28-.37-1.04-.52-2.13-.89-3.17-1.03-2.9-2.77-5.55-4.72-7.91.15-.31.43-.5.62-.81.56-.83.7-1.84.64-2.83,3.87-.54,9.13,0,10.93-4.35ZM43.58,25.92c-1.59-.87-3.15-1.72-4.86-2.34-.64-.23-2.34-.6-2.75-.93-1.03-.79.21-1.66,1.03-1.92.97-.27,1.66-.19,2.61.04,1.18.27,4.24,1.7,5.22,2.53,1.59,1.3.35,2.55-1.26,2.61ZM53.2,21.63c-.06.02-.12,0-.17,0-.58.08-1.14.12-1.7.19-.1,0-.19-.02-.27,0-.62.06-1.24.12-1.84.19-.23.02-1.16.25-1.26.23-.04,0-.1-.08-.17-.17-.04-.06-.08-.1-.1-.15-.04-.06-.08-.1-.12-.15l-.1-.1-.02-.04-.08-.08s-.06-.06-.1-.08l-.02-.04s-.02,0-.04-.02c-.14-.12-.33-.25-.46-.37l-.12-.12c-.12-.12-.17-.19-.17-.23.35-.83.79-1.64,1.12-2.48.29-.75.79-1.78.25-2.5-2.26-.52-3.66,1.74-5.19,2.96-1.41-.35-2.73-.95-4.18-1.12-.12-.1-.14-.6-.17-.77-.04-.15-.04-.35-.08-.54-.58-2.46-1.2-5.88.62-7.99.04-.02.06-.06.1-.08,0-.15.21-.35.31-.45.5-.48.97-.68,1.68-.52,1.86.43,2.57,2.83,4.86,3.04,1.86.15,5.01-.79,6.17,1.18.87,1.49-.21,2.77.7,4.22,1.3,1.06,3.73,1.78,3.95,3.72.21,1.95-2.03,2.09-3.41,2.26Z"/>
    <text class="st3" transform="translate(14.28 56.06) rotate(18.62)"><tspan x="0" y="0">$</tspan></text>
  </g>
  <path class="st0" d="M39.62,20.77c1.18.28,4.24,1.71,5.23,2.53,1.57,1.3.34,2.55-1.27,2.62-1.58-.87-3.14-1.73-4.84-2.34-.65-.23-2.35-.6-2.75-.93-1.02-.8.21-1.67,1.03-1.92.96-.29,1.66-.2,2.61.03Z"/>
</svg>